# xmcd CD database file
#
# Track frame offsets:
#	150
#	25987
#	41340
#	55690
#	86325
#	101232
#	123475
#	153607
#	178325
#	196965
#	221140
#	241467
#	263312
#	280982
#
# Disc length: 3912 seconds
#
# Revision: 0
# Processed by: cddbd v1.5.1PL0 Copyright (c) Steve Scherf et al.
# Submitted via: CDex 1.51
#
DISCID=c50f460e
DTITLE=The Dirty Dozen Brass Band - Jazz Moods - Hot
DYEAR=2005
DGENRE=Jazz
TTITLE0=Snowball
TTITLE1=Moose The Mooche
TTITLE2=That's How You Got Killed Before
TTITLE3=Use Your Brain
TTITLE4=Don't Drive Drunk
TTITLE5=It's All Over Now
TTITLE6=Freakish
TTITLE7=Song For Bobe
TTITLE8=Remember When
TTITLE9=Jungle Blues
TTITLE10=Eyomzi
TTITLE11=Charlie Dozen
TTITLE12=Oop Pop A Dah
TTITLE13=Kidd Jordan's Second Line
EXTD=YEAR: 2005
EXTT0=
EXTT1=
EXTT2=
EXTT3=
EXTT4=
EXTT5=
EXTT6=
EXTT7=
EXTT8=
EXTT9=
EXTT10=
EXTT11=
EXTT12=
EXTT13=
PLAYORDER=
